<?xml version="1.0" encoding="utf-8"?>
<!-- Generator: Adobe Illustrator 24.3.0, SVG Export Plug-In . SVG Version: 6.00 Build 0)  -->
<svg version="1.1" id="Layer_1" xmlns="http://www.w3.org/2000/svg" xmlns:xlink="http://www.w3.org/1999/xlink" x="0px" y="0px"
	 viewBox="0 0 32 32" style="enable-background:new 0 0 32 32;" xml:space="preserve">
<style type="text/css">
	.st0{fill:#FFFFFF;}
</style>
<path class="st0" d="M29,32H3c-1.66,0-3-1.34-3-3L0,3c0-1.66,1.34-3,3-3l26,0c1.66,0,3,1.34,3,3v26C32,30.66,30.66,32,29,32z"/>
<polygon points="16,15.22 25.1,9.93 23.31,8.89 16,13.13 8.69,8.89 6.9,9.93 "/>
<polygon points="16,11.01 21.48,7.83 19.69,6.78 16,8.93 12.31,6.78 10.52,7.83 "/>
<polygon points="14.21,5.68 16,6.72 17.79,5.68 16,4.64 "/>
<path d="M16.87,16.82l0.02,10.54L26,22.07v-10.5L16.87,16.82z M24.23,16.82l-3.69,2.14v2.09l3.69-2.19v2.19l-5.5,3.18v-6.37
	l5.5-3.24V16.82z"/>
<polygon points="6,11.55 6,22.07 7.74,23.08 7.74,14.63 9.61,15.75 9.61,24.17 11.44,25.23 11.44,16.75 13.25,17.82 13.25,26.28 
	13.25,26.28 15.06,27.34 15.09,16.78 "/>
</svg>
